{
  "accessors": [
    {
      "bufferView": 0,
      "componentType": 5126,
      "count": 997,
      "type": "VEC3",
      "max": [
        0.0030000000260770321,
        0.0010000000474974513,
        0.0030000000260770321
      ],
      "min": [
        -0.0030000000260770321,
        -0.0010000000474974513,
        -0.0030000000260770321
      ]
    },
    {
      "bufferView": 1,
      "componentType": 5126,
      "count": 997,
      "type": "VEC3",
      "max": [
        1.0,
        1.0,
        1.0
      ],
      "min": [
        -1.0,
        -1.0,
        -1.0
      ]
    },
    {
      "bufferView": 2,
      "componentType": 5126,
      "count": 997,
      "type": "VEC4",
      "max": [
        1.0,
        0.0,
        1.0,
        -1.0
      ],
      "min": [
        -1.0,
        0.0,
        -1.0,
        -1.0
      ]
    },
    {
      "bufferView": 3,
      "componentType": 5126,
      "count": 997,
      "type": "VEC2",
      "max": [
        1.0,
        1.0
      ],
      "min": [
        0.0,
        0.0
      ]
    },
    {
      "bufferView": 4,
      "componentType": 5125,
      "count": 4968,
      "type": "SCALAR",
      "max": [
        996.0
      ],
      "min": [
        0.0
      ]
    },
    {
      "bufferView": 5,
      "componentType": 5126,
      "count": 30,
      "type": "SCALAR",
      "max": [
        0.96666669845581055
      ],
      "min": [
        0.0
      ]
    },
    {
      "bufferView": 6,
      "componentType": 5126,
      "count": 30,
      "type": "VEC3",
      "max": [
        3.4354000091552734,
        1.3908416032791138,
        -1.3179874420166016
      ],
      "min": [
        3.4354000091552734,
        1.3908416032791138,
        -1.3179874420166016
      ]
    },
    {
      "bufferView": 7,
      "componentType": 5126,
      "count": 30,
      "type": "VEC4",
      "max": [
        0.5,
        0.5,
        -0.5,
        -0.5
      ],
      "min": [
        0.5,
        0.5,
        -0.5,
        -0.5
      ]
    },
    {
      "bufferView": 8,
      "componentType": 5126,
      "count": 30,
      "type": "VEC3",
      "max": [
        1.0,
        1.0,
        1.0
      ],
      "min": [
        1.0,
        1.0,
        1.0
      ]
    }
  ],
  "animations": [
    {
      "channels": [
        {
          "sampler": 0,
          "target": {
            "node": 0,
            "path": "translation"
          }
        },
        {
          "sampler": 1,
          "target": {
            "node": 0,
            "path": "rotation"
          }
        },
        {
          "sampler": 2,
          "target": {
            "node": 0,
            "path": "scale"
          }
        }
      ],
      "samplers": [
        {
          "input": 5,
          "output": 6
        },
        {
          "input": 5,
          "output": 7
        },
        {
          "input": 5,
          "output": 8
        }
      ],
      "name": "Bright"
    }
  ],
  "asset": {
    "generator": "Plattar UnityGLTF (2019.3.8f1)",
    "version": "2.0"
  },
  "buffers": [
    {
      "uri": "lamp4.bin",
      "byteLength": 69048
    }
  ],
  "bufferViews": [
    {
      "buffer": 0,
      "byteLength": 11964
    },
    {
      "buffer": 0,
      "byteOffset": 11964,
      "byteLength": 11964
    },
    {
      "buffer": 0,
      "byteOffset": 23928,
      "byteLength": 15952
    },
    {
      "buffer": 0,
      "byteOffset": 39880,
      "byteLength": 7976
    },
    {
      "buffer": 0,
      "byteOffset": 47856,
      "byteLength": 19872
    },
    {
      "buffer": 0,
      "byteOffset": 67728,
      "byteLength": 120
    },
    {
      "buffer": 0,
      "byteOffset": 67848,
      "byteLength": 360
    },
    {
      "buffer": 0,
      "byteOffset": 68208,
      "byteLength": 480
    },
    {
      "buffer": 0,
      "byteOffset": 68688,
      "byteLength": 360
    }
  ],
  "materials": [
    {
      "pbrMetallicRoughness": {
        "baseColorFactor": [
          0.854,
          0.854,
          0.854,
          1.0
        ],
        "metallicFactor": 0.0,
        "roughnessFactor": 0.5
      },
      "name": "lamp_material"
    }
  ],
  "meshes": [
    {
      "primitives": [
        {
          "attributes": {
            "POSITION": 0,
            "NORMAL": 1,
            "TANGENT": 2,
            "TEXCOORD_0": 3
          },
          "indices": 4,
          "material": 0
        }
      ],
      "name": "lamp4"
    }
  ],
  "nodes": [
    {
      "mesh": 0,
      "rotation": [
        0.5,
        0.5,
        0.5,
        0.5
      ],
      "translation": [
        3.4354,
        1.3908416,
        1.31798744
      ],
      "name": "lamp4"
    }
  ],
  "scene": 0,
  "scenes": [
    {
      "nodes": [
        0
      ],
      "name": "lamp4"
    }
  ]
}