{
  "extensionsUsed": [
    "KHR_texture_transform"
  ],
  "accessors": [
    {
      "bufferView": 0,
      "componentType": 5126,
      "count": 1323,
      "type": "VEC3",
      "max": [
        0.014899999834597111,
        0.014029999263584614,
        0.015839999541640282
      ],
      "min": [
        -0.014899999834597111,
        -0.014029999263584614,
        -0.015839999541640282
      ]
    },
    {
      "bufferView": 1,
      "componentType": 5126,
      "count": 1323,
      "type": "VEC3",
      "max": [
        0.9999995231628418,
        0.9999995231628418,
        1.0
      ],
      "min": [
        -0.9999995231628418,
        -0.9999995231628418,
        -1.0
      ]
    },
    {
      "bufferView": 2,
      "componentType": 5126,
      "count": 1323,
      "type": "VEC4",
      "max": [
        1.0,
        0.045107681304216385,
        1.0,
        1.0
      ],
      "min": [
        -1.0,
        -0.040857411921024323,
        -1.0,
        -1.0
      ]
    },
    {
      "bufferView": 3,
      "componentType": 5126,
      "count": 1323,
      "type": "VEC2",
      "max": [
        1.0,
        1.0
      ],
      "min": [
        0.0,
        0.0
      ]
    },
    {
      "bufferView": 4,
      "componentType": 5125,
      "count": 432,
      "type": "SCALAR",
      "max": [
        147.0
      ],
      "min": [
        0.0
      ]
    },
    {
      "bufferView": 5,
      "componentType": 5125,
      "count": 4200,
      "type": "SCALAR",
      "max": [
        1322.0
      ],
      "min": [
        148.0
      ]
    },
    {
      "bufferView": 6,
      "componentType": 5126,
      "count": 45,
      "type": "SCALAR",
      "max": [
        1.4666666984558105
      ],
      "min": [
        0.0
      ]
    },
    {
      "bufferView": 7,
      "componentType": 5126,
      "count": 45,
      "type": "VEC3",
      "max": [
        3.4450395107269287,
        1.32345712184906,
        -1.3045932054519653
      ],
      "min": [
        3.4450395107269287,
        1.32345712184906,
        -1.3045932054519653
      ]
    },
    {
      "bufferView": 8,
      "componentType": 5126,
      "count": 45,
      "type": "VEC4",
      "max": [
        0.004752475768327713,
        -0.18296882510185242,
        0.68302440643310547,
        0.70710670948028564
      ],
      "min": [
        -0.683024525642395,
        -0.7071068286895752,
        -0.0047524753026664257,
        0.18296879529953003
      ]
    },
    {
      "bufferView": 9,
      "componentType": 5126,
      "count": 45,
      "type": "VEC3",
      "max": [
        1.0,
        1.0,
        1.0
      ],
      "min": [
        1.0,
        1.0,
        1.0
      ]
    },
    {
      "bufferView": 10,
      "componentType": 5126,
      "count": 45,
      "type": "SCALAR",
      "max": [
        1.4666666984558105
      ],
      "min": [
        0.0
      ]
    },
    {
      "bufferView": 11,
      "componentType": 5126,
      "count": 45,
      "type": "VEC3",
      "max": [
        -0.018259197473526,
        0.12407712638378143,
        0.070187069475650787
      ],
      "min": [
        -0.023692060261964798,
        0.12407712638378143,
        0.070187069475650787
      ]
    },
    {
      "bufferView": 12,
      "componentType": 5126,
      "count": 45,
      "type": "VEC4",
      "max": [
        0.50227242708206177,
        0.49884912371635437,
        -0.49771714210510254,
        -0.4977172315120697
      ],
      "min": [
        -0.49884906411170959,
        -0.502272367477417,
        -0.70690357685089111,
        -0.70690357685089111
      ]
    },
    {
      "bufferView": 13,
      "componentType": 5126,
      "count": 45,
      "type": "VEC3",
      "max": [
        1.0,
        1.0,
        1.0
      ],
      "min": [
        1.0,
        1.0,
        1.0
      ]
    }
  ],
  "animations": [
    {
      "channels": [
        {
          "sampler": 0,
          "target": {
            "node": 0,
            "path": "translation"
          }
        },
        {
          "sampler": 1,
          "target": {
            "node": 0,
            "path": "rotation"
          }
        },
        {
          "sampler": 2,
          "target": {
            "node": 0,
            "path": "scale"
          }
        }
      ],
      "samplers": [
        {
          "input": 6,
          "output": 7
        },
        {
          "input": 6,
          "output": 8
        },
        {
          "input": 6,
          "output": 9
        }
      ],
      "name": "Rotation"
    },
    {
      "channels": [
        {
          "sampler": 0,
          "target": {
            "node": 1,
            "path": "translation"
          }
        },
        {
          "sampler": 1,
          "target": {
            "node": 1,
            "path": "rotation"
          }
        },
        {
          "sampler": 2,
          "target": {
            "node": 1,
            "path": "scale"
          }
        }
      ],
      "samplers": [
        {
          "input": 10,
          "output": 11
        },
        {
          "input": 10,
          "output": 12
        },
        {
          "input": 10,
          "output": 13
        }
      ],
      "name": "Open"
    }
  ],
  "asset": {
    "generator": "Plattar UnityGLTF (2019.3.8f1)",
    "version": "2.0"
  },
  "buffers": [
    {
      "uri": "Left_valwe.bin",
      "byteLength": 85992
    }
  ],
  "bufferViews": [
    {
      "buffer": 0,
      "byteLength": 15876
    },
    {
      "buffer": 0,
      "byteOffset": 15876,
      "byteLength": 15876
    },
    {
      "buffer": 0,
      "byteOffset": 31752,
      "byteLength": 21168
    },
    {
      "buffer": 0,
      "byteOffset": 52920,
      "byteLength": 10584
    },
    {
      "buffer": 0,
      "byteOffset": 63504,
      "byteLength": 1728
    },
    {
      "buffer": 0,
      "byteOffset": 65232,
      "byteLength": 16800
    },
    {
      "buffer": 0,
      "byteOffset": 82032,
      "byteLength": 180
    },
    {
      "buffer": 0,
      "byteOffset": 82212,
      "byteLength": 540
    },
    {
      "buffer": 0,
      "byteOffset": 82752,
      "byteLength": 720
    },
    {
      "buffer": 0,
      "byteOffset": 83472,
      "byteLength": 540
    },
    {
      "buffer": 0,
      "byteOffset": 84012,
      "byteLength": 180
    },
    {
      "buffer": 0,
      "byteOffset": 84192,
      "byteLength": 540
    },
    {
      "buffer": 0,
      "byteOffset": 84732,
      "byteLength": 720
    },
    {
      "buffer": 0,
      "byteOffset": 85452,
      "byteLength": 540
    }
  ],
  "images": [
    {
      "uri": "basegray1.jpg",
      "name": "basegray1"
    },
    {
      "uri": "MetalDusty.jpg",
      "name": "MetalDusty"
    },
    {
      "uri": "Armydiarrhea.jpg",
      "name": "Armydiarrhea"
    }
  ],
  "materials": [
    {
      "pbrMetallicRoughness": {
        "baseColorFactor": [
          0.8490566,
          0.8490566,
          0.8490566,
          1.0
        ],
        "baseColorTexture": {
          "index": 0,
          "extensions": {
            "KHR_texture_transform": {
              "offset": [
                0.0,
                1.0
              ]
            }
          }
        },
        "metallicFactor": 0.0
      },
      "name": "Основа ППО"
    },
    {
      "pbrMetallicRoughness": {
        "baseColorTexture": {
          "index": 2,
          "extensions": {
            "KHR_texture_transform": {
              "offset": [
                0.0,
                1.0
              ]
            }
          }
        },
        "metallicFactor": 0.0
      },
      "normalTexture": {
        "index": 1,
        "extensions": {
          "KHR_texture_transform": {
            "offset": [
              0.0,
              1.0
            ]
          }
        }
      },
      "name": "Армейский поносный_3"
    }
  ],
  "meshes": [
    {
      "primitives": [
        {
          "attributes": {
            "POSITION": 0,
            "NORMAL": 1,
            "TANGENT": 2,
            "TEXCOORD_0": 3
          },
          "indices": 4,
          "material": 0
        },
        {
          "attributes": {
            "POSITION": 0,
            "NORMAL": 1,
            "TANGENT": 2,
            "TEXCOORD_0": 3
          },
          "indices": 5,
          "material": 1
        }
      ],
      "name": "ValveTopL_1"
    }
  ],
  "nodes": [
    {
      "children": [
        1
      ],
      "rotation": [
        0.0,
        -0.7071068,
        0.0,
        -0.7071068
      ],
      "scale": [
        1.00000024,
        1.0,
        1.00000024
      ],
      "translation": [
        3.44503951,
        1.32345712,
        1.30459321
      ],
      "name": "Left_valwe"
    },
    {
      "mesh": 0,
      "rotation": [
        0.502276063,
        -0.502276063,
        0.497713566,
        0.497713566
      ],
      "translation": [
        -0.0182591975,
        0.124077126,
        -0.07018707
      ],
      "name": "ValveTopL_1"
    }
  ],
  "samplers": [
    {
      "minFilter": 9729
    }
  ],
  "scene": 0,
  "scenes": [
    {
      "nodes": [
        0
      ],
      "name": "Left_valwe"
    }
  ],
  "textures": [
    {
      "sampler": 0,
      "source": 0,
      "name": "basegray1"
    },
    {
      "sampler": 0,
      "source": 1,
      "name": "MetalDusty"
    },
    {
      "sampler": 0,
      "source": 2,
      "name": "Armydiarrhea"
    }
  ]
}