{
  "extensionsUsed": [
    "KHR_texture_transform"
  ],
  "accessors": [
    {
      "bufferView": 0,
      "componentType": 5126,
      "count": 22164,
      "type": "VEC3",
      "max": [
        0.0047276881523430347,
        0.0068737436085939407,
        0.036658328026533127
      ],
      "min": [
        -0.0047276881523430347,
        -0.00049497501458972692,
        4.7372144763357937E-05
      ]
    },
    {
      "bufferView": 1,
      "componentType": 5126,
      "count": 22164,
      "type": "VEC3",
      "max": [
        0.99991714954376221,
        0.9999992847442627,
        0.99994397163391113
      ],
      "min": [
        -0.99991714954376221,
        -0.9999992847442627,
        -0.99994385242462158
      ]
    },
    {
      "bufferView": 2,
      "componentType": 5126,
      "count": 22164,
      "type": "VEC4",
      "max": [
        0.9999927282333374,
        0.0791294053196907,
        0.999996542930603,
        1.0
      ],
      "min": [
        -0.99999833106994629,
        -0.10107269138097763,
        -0.999997615814209,
        -1.0
      ]
    },
    {
      "bufferView": 3,
      "componentType": 5126,
      "count": 22164,
      "type": "VEC2",
      "max": [
        1.0,
        1.0
      ],
      "min": [
        0.0,
        0.0
      ]
    },
    {
      "bufferView": 4,
      "componentType": 5125,
      "count": 13104,
      "type": "SCALAR",
      "max": [
        4898.0
      ],
      "min": [
        0.0
      ]
    },
    {
      "bufferView": 5,
      "componentType": 5125,
      "count": 98052,
      "type": "SCALAR",
      "max": [
        22163.0
      ],
      "min": [
        4899.0
      ]
    },
    {
      "bufferView": 6,
      "componentType": 5126,
      "count": 55,
      "type": "SCALAR",
      "max": [
        1.8000000715255737
      ],
      "min": [
        0.0
      ]
    },
    {
      "bufferView": 7,
      "componentType": 5126,
      "count": 55,
      "type": "VEC3",
      "max": [
        0.0091350581496953964,
        0.01097919512540102,
        -0.080934636294841766
      ],
      "min": [
        0.0091350581496953964,
        0.01097919512540102,
        -0.080934636294841766
      ]
    },
    {
      "bufferView": 8,
      "componentType": 5126,
      "count": 55,
      "type": "VEC4",
      "max": [
        -0.0049344231374561787,
        0.0,
        0.0,
        0.99998784065246582
      ],
      "min": [
        -0.72390824556350708,
        0.0,
        0.0,
        0.68989622592926025
      ]
    },
    {
      "bufferView": 9,
      "componentType": 5126,
      "count": 55,
      "type": "VEC3",
      "max": [
        1.0,
        1.0,
        1.0
      ],
      "min": [
        1.0,
        1.0,
        1.0
      ]
    }
  ],
  "animations": [
    {
      "channels": [
        {
          "sampler": 0,
          "target": {
            "node": 0,
            "path": "translation"
          }
        },
        {
          "sampler": 1,
          "target": {
            "node": 0,
            "path": "rotation"
          }
        },
        {
          "sampler": 2,
          "target": {
            "node": 0,
            "path": "scale"
          }
        }
      ],
      "samplers": [
        {
          "input": 6,
          "output": 7
        },
        {
          "input": 6,
          "output": 8
        },
        {
          "input": 6,
          "output": 9
        }
      ],
      "name": "Open"
    }
  ],
  "asset": {
    "generator": "Plattar UnityGLTF (2019.3.8f1)",
    "version": "2.0"
  },
  "buffers": [
    {
      "uri": "Lock_1.bin",
      "byteLength": 1510916
    }
  ],
  "bufferViews": [
    {
      "buffer": 0,
      "byteLength": 265968
    },
    {
      "buffer": 0,
      "byteOffset": 265968,
      "byteLength": 265968
    },
    {
      "buffer": 0,
      "byteOffset": 531936,
      "byteLength": 354624
    },
    {
      "buffer": 0,
      "byteOffset": 886560,
      "byteLength": 177312
    },
    {
      "buffer": 0,
      "byteOffset": 1063872,
      "byteLength": 52416
    },
    {
      "buffer": 0,
      "byteOffset": 1116288,
      "byteLength": 392208
    },
    {
      "buffer": 0,
      "byteOffset": 1508496,
      "byteLength": 220
    },
    {
      "buffer": 0,
      "byteOffset": 1508716,
      "byteLength": 660
    },
    {
      "buffer": 0,
      "byteOffset": 1509376,
      "byteLength": 880
    },
    {
      "buffer": 0,
      "byteOffset": 1510256,
      "byteLength": 660
    }
  ],
  "images": [
    {
      "uri": "ScrewHeadGolden.jpg",
      "name": "ScrewHeadGolden"
    },
    {
      "uri": "Plastic.jpg",
      "name": "Plastic"
    }
  ],
  "materials": [
    {
      "pbrMetallicRoughness": {
        "baseColorFactor": [
          0.8,
          0.8,
          0.8,
          1.0
        ],
        "baseColorTexture": {
          "index": 0,
          "extensions": {
            "KHR_texture_transform": {
              "offset": [
                0.0,
                1.0
              ]
            }
          }
        },
        "metallicFactor": 0.0
      },
      "name": "Болты ППО"
    },
    {
      "pbrMetallicRoughness": {
        "baseColorFactor": [
          0.8,
          0.8,
          0.8,
          1.0
        ],
        "baseColorTexture": {
          "index": 1,
          "extensions": {
            "KHR_texture_transform": {
              "offset": [
                0.0,
                1.0
              ]
            }
          }
        },
        "metallicFactor": 0.0
      },
      "name": "Black Plastic"
    }
  ],
  "meshes": [
    {
      "primitives": [
        {
          "attributes": {
            "POSITION": 0,
            "NORMAL": 1,
            "TANGENT": 2,
            "TEXCOORD_0": 3
          },
          "indices": 4,
          "material": 0
        },
        {
          "attributes": {
            "POSITION": 0,
            "NORMAL": 1,
            "TANGENT": 2,
            "TEXCOORD_0": 3
          },
          "indices": 5,
          "material": 1
        }
      ],
      "name": "Lock_1"
    }
  ],
  "nodes": [
    {
      "mesh": 0,
      "rotation": [
        -0.5026629,
        -0.5026629,
        -0.4973229,
        -0.4973229
      ],
      "scale": [
        1.00000012,
        1.00000012,
        1.00000012
      ],
      "translation": [
        3.521669,
        1.39574647,
        1.31315362
      ],
      "name": "Lock_1"
    }
  ],
  "samplers": [
    {
      "minFilter": 9729
    }
  ],
  "scene": 0,
  "scenes": [
    {
      "nodes": [
        0
      ],
      "name": "Lock_1"
    }
  ],
  "textures": [
    {
      "sampler": 0,
      "source": 0,
      "name": "ScrewHeadGolden"
    },
    {
      "sampler": 0,
      "source": 1,
      "name": "Plastic"
    }
  ]
}