{
  "extensionsUsed": [
    "KHR_texture_transform"
  ],
  "accessors": [
    {
      "bufferView": 0,
      "componentType": 5126,
      "count": 784,
      "type": "VEC3",
      "max": [
        0.14165638387203217,
        0.19372479617595673,
        0.14160460233688354
      ],
      "min": [
        -0.14165638387203217,
        -0.19372479617595673,
        -0.14160460233688354
      ]
    },
    {
      "bufferView": 1,
      "componentType": 5126,
      "count": 784,
      "type": "VEC3",
      "max": [
        1.0,
        1.0,
        1.0
      ],
      "min": [
        -1.0,
        -1.0,
        -1.0
      ]
    },
    {
      "bufferView": 2,
      "componentType": 5126,
      "count": 784,
      "type": "VEC4",
      "max": [
        1.0,
        0.39540541172027588,
        1.0,
        -1.0
      ],
      "min": [
        -1.0,
        -0.3954053521156311,
        -1.0,
        -1.0
      ]
    },
    {
      "bufferView": 3,
      "componentType": 5126,
      "count": 784,
      "type": "VEC2",
      "max": [
        1.0,
        1.0
      ],
      "min": [
        0.0,
        0.0
      ]
    },
    {
      "bufferView": 4,
      "componentType": 5125,
      "count": 1584,
      "type": "SCALAR",
      "max": [
        635.0
      ],
      "min": [
        0.0
      ]
    },
    {
      "bufferView": 5,
      "componentType": 5125,
      "count": 432,
      "type": "SCALAR",
      "max": [
        783.0
      ],
      "min": [
        636.0
      ]
    },
    {
      "bufferView": 6,
      "componentType": 5126,
      "count": 60,
      "type": "SCALAR",
      "max": [
        1.9666668176651
      ],
      "min": [
        0.0
      ]
    },
    {
      "bufferView": 7,
      "componentType": 5126,
      "count": 60,
      "type": "VEC3",
      "max": [
        4.5768728256225586,
        0.93002158403396606,
        -1.263205885887146
      ],
      "min": [
        4.5768728256225586,
        0.70006197690963745,
        -1.263205885887146
      ]
    },
    {
      "bufferView": 8,
      "componentType": 5126,
      "count": 60,
      "type": "VEC4",
      "max": [
        0.0,
        0.0,
        4.8271528579723384E-33,
        1.0
      ],
      "min": [
        0.0,
        0.0,
        4.8271528579723384E-33,
        1.0
      ]
    },
    {
      "bufferView": 9,
      "componentType": 5126,
      "count": 60,
      "type": "VEC3",
      "max": [
        1.0,
        1.0,
        1.0
      ],
      "min": [
        1.0,
        1.0,
        1.0
      ]
    }
  ],
  "animations": [
    {
      "channels": [
        {
          "sampler": 0,
          "target": {
            "node": 0,
            "path": "translation"
          }
        },
        {
          "sampler": 1,
          "target": {
            "node": 0,
            "path": "rotation"
          }
        },
        {
          "sampler": 2,
          "target": {
            "node": 0,
            "path": "scale"
          }
        }
      ],
      "samplers": [
        {
          "input": 6,
          "output": 7
        },
        {
          "input": 6,
          "output": 8
        },
        {
          "input": 6,
          "output": 9
        }
      ],
      "name": "Down"
    }
  ],
  "asset": {
    "generator": "Plattar UnityGLTF (2019.3.8f1)",
    "version": "2.0"
  },
  "buffers": [
    {
      "uri": "Support1.bin",
      "byteLength": 48336
    }
  ],
  "bufferViews": [
    {
      "buffer": 0,
      "byteLength": 9408
    },
    {
      "buffer": 0,
      "byteOffset": 9408,
      "byteLength": 9408
    },
    {
      "buffer": 0,
      "byteOffset": 18816,
      "byteLength": 12544
    },
    {
      "buffer": 0,
      "byteOffset": 31360,
      "byteLength": 6272
    },
    {
      "buffer": 0,
      "byteOffset": 37632,
      "byteLength": 6336
    },
    {
      "buffer": 0,
      "byteOffset": 43968,
      "byteLength": 1728
    },
    {
      "buffer": 0,
      "byteOffset": 45696,
      "byteLength": 240
    },
    {
      "buffer": 0,
      "byteOffset": 45936,
      "byteLength": 720
    },
    {
      "buffer": 0,
      "byteOffset": 46656,
      "byteLength": 960
    },
    {
      "buffer": 0,
      "byteOffset": 47616,
      "byteLength": 720
    }
  ],
  "images": [
    {
      "uri": "Black-texture.jpg",
      "name": "Black-texture"
    }
  ],
  "materials": [
    {
      "pbrMetallicRoughness": {
        "baseColorFactor": [
          0.15,
          0.15,
          0.15,
          1.0
        ],
        "baseColorTexture": {
          "index": 0,
          "extensions": {
            "KHR_texture_transform": {
              "offset": [
                0.0,
                1.0
              ]
            }
          }
        },
        "metallicFactor": 0.0
      },
      "name": "Материал.1_1"
    },
    {
      "pbrMetallicRoughness": {
        "metallicFactor": 0.0
      },
      "name": "No Name"
    }
  ],
  "meshes": [
    {
      "primitives": [
        {
          "attributes": {
            "POSITION": 0,
            "NORMAL": 1,
            "TANGENT": 2,
            "TEXCOORD_0": 3
          },
          "indices": 4,
          "material": 0
        },
        {
          "attributes": {
            "POSITION": 0,
            "NORMAL": 1,
            "TANGENT": 2,
            "TEXCOORD_0": 3
          },
          "indices": 5,
          "material": 1
        }
      ],
      "name": "Support1"
    }
  ],
  "nodes": [
    {
      "mesh": 0,
      "rotation": [
        0.0,
        0.0,
        -4.827153E-33,
        -1.0
      ],
      "translation": [
        4.576873,
        0.93,
        1.26320589
      ],
      "name": "Support1"
    }
  ],
  "samplers": [
    {
      "minFilter": 9729
    }
  ],
  "scene": 0,
  "scenes": [
    {
      "nodes": [
        0
      ],
      "name": "Support1"
    }
  ],
  "textures": [
    {
      "sampler": 0,
      "source": 0,
      "name": "Black-texture"
    }
  ]
}